<mxfile host="app.diagrams.net" modified="2024-03-01T08:20:18.331Z" agent="Mozilla/5.0 (Macintosh; Intel Mac OS X 10_15_7) AppleWebKit/537.36 (KHTML, like Gecko) Chrome/122.0.0.0 Safari/537.36" etag="bkDdLihMSorO49EfJPFF" version="23.1.8" type="github">
  <diagram name="第 1 页" id="-yW8K2cIxQd3r6JCjM-w">
    <mxGraphModel dx="1140" dy="618" grid="1" gridSize="10" guides="1" tooltips="1" connect="1" arrows="1" fold="1" page="1" pageScale="1" pageWidth="827" pageHeight="1169" math="0" shadow="0">
      <root>
        <mxCell id="0" />
        <mxCell id="1" parent="0" />
        <mxCell id="FBqa_B7aNncu9lDiiUvF-1" value="" style="rounded=1;whiteSpace=wrap;html=1;" parent="1" vertex="1">
          <mxGeometry x="149" y="120" width="720" height="320" as="geometry" />
        </mxCell>
        <mxCell id="FBqa_B7aNncu9lDiiUvF-2" value="&lt;font style=&quot;font-size: 16px;&quot;&gt;User服务&lt;/font&gt;" style="text;html=1;align=center;verticalAlign=middle;whiteSpace=wrap;rounded=0;" parent="1" vertex="1">
          <mxGeometry x="471" y="90" width="76" height="30" as="geometry" />
        </mxCell>
        <mxCell id="FBqa_B7aNncu9lDiiUvF-3" value="&lt;div style=&quot;&quot;&gt;&lt;pre style=&quot;font-family:&#39;JetBrains Mono&#39;,monospace;font-size:12.0pt;&quot;&gt;UserService&lt;/pre&gt;&lt;/div&gt;" style="text;whiteSpace=wrap;html=1;fontColor=default;labelBackgroundColor=none;" parent="1" vertex="1">
          <mxGeometry x="200" y="140" width="110" height="60" as="geometry" />
        </mxCell>
        <mxCell id="FBqa_B7aNncu9lDiiUvF-9" value="" style="group" parent="1" vertex="1" connectable="0">
          <mxGeometry x="161.63" y="190" width="198.37" height="220" as="geometry" />
        </mxCell>
        <mxCell id="FBqa_B7aNncu9lDiiUvF-8" value="" style="rounded=1;whiteSpace=wrap;html=1;" parent="FBqa_B7aNncu9lDiiUvF-9" vertex="1">
          <mxGeometry width="185.35777777777778" height="220" as="geometry" />
        </mxCell>
        <mxCell id="FBqa_B7aNncu9lDiiUvF-4" value="&lt;div style=&quot;&quot;&gt;&lt;pre style=&quot;font-family: &amp;quot;JetBrains Mono&amp;quot;, monospace;&quot;&gt;&lt;font style=&quot;font-size: 14px;&quot;&gt;getByUserId()&lt;/font&gt;&lt;/pre&gt;&lt;/div&gt;" style="text;whiteSpace=wrap;html=1;fontColor=default;labelBackgroundColor=none;" parent="FBqa_B7aNncu9lDiiUvF-9" vertex="1">
          <mxGeometry x="33.72555555555555" y="70" width="117.90666666666667" height="50" as="geometry" />
        </mxCell>
        <mxCell id="FBqa_B7aNncu9lDiiUvF-5" value="&lt;div style=&quot;&quot;&gt;&lt;pre style=&quot;font-family: &amp;quot;JetBrains Mono&amp;quot;, monospace;&quot;&gt;&lt;font style=&quot;font-size: 14px;&quot;&gt;insertOne()&lt;/font&gt;&lt;/pre&gt;&lt;/div&gt;" style="text;whiteSpace=wrap;html=1;fontColor=default;labelBackgroundColor=none;" parent="FBqa_B7aNncu9lDiiUvF-9" vertex="1">
          <mxGeometry x="44.35" y="20" width="105.65" height="50" as="geometry" />
        </mxCell>
        <mxCell id="FBqa_B7aNncu9lDiiUvF-6" value="&lt;div style=&quot;&quot;&gt;&lt;pre style=&quot;font-family: &amp;quot;JetBrains Mono&amp;quot;, monospace;&quot;&gt;&lt;font style=&quot;font-size: 14px;&quot;&gt;batchQueryUserInfo()&lt;/font&gt;&lt;/pre&gt;&lt;/div&gt;" style="text;whiteSpace=wrap;html=1;fontColor=default;labelBackgroundColor=none;" parent="FBqa_B7aNncu9lDiiUvF-9" vertex="1">
          <mxGeometry x="7.17" y="120" width="191.2" height="50" as="geometry" />
        </mxCell>
        <mxCell id="FBqa_B7aNncu9lDiiUvF-7" value="&lt;div style=&quot;&quot;&gt;&lt;pre style=&quot;font-family: &amp;quot;JetBrains Mono&amp;quot;, monospace;&quot;&gt;&lt;font style=&quot;font-size: 14px;&quot;&gt;updateUserInfo()&lt;/font&gt;&lt;/pre&gt;&lt;/div&gt;" style="text;whiteSpace=wrap;html=1;fontColor=default;labelBackgroundColor=none;" parent="FBqa_B7aNncu9lDiiUvF-9" vertex="1">
          <mxGeometry x="18.323333333333334" y="160" width="148.7111111111111" height="50" as="geometry" />
        </mxCell>
        <mxCell id="FBqa_B7aNncu9lDiiUvF-10" value="Redis" style="shape=cylinder3;whiteSpace=wrap;html=1;boundedLbl=1;backgroundOutline=1;size=15;" parent="1" vertex="1">
          <mxGeometry x="479" y="505" width="60" height="80" as="geometry" />
        </mxCell>
        <mxCell id="FBqa_B7aNncu9lDiiUvF-11" value="MySQL" style="shape=cylinder3;whiteSpace=wrap;html=1;boundedLbl=1;backgroundOutline=1;size=15;" parent="1" vertex="1">
          <mxGeometry x="479" y="620" width="60" height="80" as="geometry" />
        </mxCell>
        <mxCell id="FBqa_B7aNncu9lDiiUvF-14" style="edgeStyle=orthogonalEdgeStyle;rounded=0;orthogonalLoop=1;jettySize=auto;html=1;exitX=0;exitY=0.5;exitDx=0;exitDy=0;entryX=0;entryY=0;entryDx=0;entryDy=52.5;entryPerimeter=0;" parent="1" source="FBqa_B7aNncu9lDiiUvF-5" target="FBqa_B7aNncu9lDiiUvF-11" edge="1">
          <mxGeometry relative="1" as="geometry">
            <Array as="points">
              <mxPoint x="90" y="235" />
              <mxPoint x="90" y="673" />
            </Array>
          </mxGeometry>
        </mxCell>
        <mxCell id="FBqa_B7aNncu9lDiiUvF-15" style="edgeStyle=orthogonalEdgeStyle;rounded=0;orthogonalLoop=1;jettySize=auto;html=1;exitX=0;exitY=0.5;exitDx=0;exitDy=0;entryX=0;entryY=0.5;entryDx=0;entryDy=0;entryPerimeter=0;" parent="1" source="FBqa_B7aNncu9lDiiUvF-4" target="FBqa_B7aNncu9lDiiUvF-10" edge="1">
          <mxGeometry relative="1" as="geometry">
            <Array as="points">
              <mxPoint x="120" y="285" />
              <mxPoint x="120" y="545" />
            </Array>
          </mxGeometry>
        </mxCell>
        <mxCell id="FBqa_B7aNncu9lDiiUvF-16" style="edgeStyle=orthogonalEdgeStyle;rounded=0;orthogonalLoop=1;jettySize=auto;html=1;exitX=0;exitY=0.5;exitDx=0;exitDy=0;entryX=0;entryY=0.5;entryDx=0;entryDy=0;entryPerimeter=0;" parent="1" source="FBqa_B7aNncu9lDiiUvF-6" target="FBqa_B7aNncu9lDiiUvF-10" edge="1">
          <mxGeometry relative="1" as="geometry">
            <Array as="points">
              <mxPoint x="140" y="335" />
              <mxPoint x="140" y="545" />
            </Array>
          </mxGeometry>
        </mxCell>
        <mxCell id="FBqa_B7aNncu9lDiiUvF-17" style="edgeStyle=orthogonalEdgeStyle;rounded=0;orthogonalLoop=1;jettySize=auto;html=1;exitX=0.5;exitY=1;exitDx=0;exitDy=0;exitPerimeter=0;entryX=0.5;entryY=0;entryDx=0;entryDy=0;entryPerimeter=0;" parent="1" source="FBqa_B7aNncu9lDiiUvF-10" target="FBqa_B7aNncu9lDiiUvF-11" edge="1">
          <mxGeometry relative="1" as="geometry" />
        </mxCell>
        <mxCell id="FBqa_B7aNncu9lDiiUvF-19" style="edgeStyle=orthogonalEdgeStyle;rounded=0;orthogonalLoop=1;jettySize=auto;html=1;exitX=1;exitY=0.5;exitDx=0;exitDy=0;entryX=1;entryY=0;entryDx=0;entryDy=52.5;entryPerimeter=0;" parent="1" source="FBqa_B7aNncu9lDiiUvF-7" target="FBqa_B7aNncu9lDiiUvF-11" edge="1">
          <mxGeometry relative="1" as="geometry" />
        </mxCell>
        <mxCell id="FBqa_B7aNncu9lDiiUvF-20" style="edgeStyle=orthogonalEdgeStyle;rounded=0;orthogonalLoop=1;jettySize=auto;html=1;exitX=0.5;exitY=0;exitDx=0;exitDy=0;exitPerimeter=0;entryX=0.5;entryY=1;entryDx=0;entryDy=0;entryPerimeter=0;" parent="1" source="FBqa_B7aNncu9lDiiUvF-11" target="FBqa_B7aNncu9lDiiUvF-10" edge="1">
          <mxGeometry relative="1" as="geometry" />
        </mxCell>
        <mxCell id="FBqa_B7aNncu9lDiiUvF-21" value="更新数据库删除缓存；&lt;br&gt;读的时候构建缓存" style="text;html=1;align=left;verticalAlign=middle;whiteSpace=wrap;rounded=0;fillColor=#f8cecc;strokeColor=#b85450;" parent="1" vertex="1">
          <mxGeometry x="407" y="450" width="140" height="40" as="geometry" />
        </mxCell>
        <mxCell id="FBqa_B7aNncu9lDiiUvF-22" value="RocketMQ消息队列" style="rounded=1;whiteSpace=wrap;html=1;" parent="1" vertex="1">
          <mxGeometry x="670" y="450" width="120" height="60" as="geometry" />
        </mxCell>
        <mxCell id="FBqa_B7aNncu9lDiiUvF-23" value="" style="endArrow=classic;html=1;rounded=0;" parent="1" target="FBqa_B7aNncu9lDiiUvF-22" edge="1">
          <mxGeometry width="50" height="50" relative="1" as="geometry">
            <mxPoint x="560" y="480" as="sourcePoint" />
            <mxPoint x="610" y="430" as="targetPoint" />
          </mxGeometry>
        </mxCell>
        <mxCell id="FBqa_B7aNncu9lDiiUvF-24" style="edgeStyle=orthogonalEdgeStyle;rounded=0;orthogonalLoop=1;jettySize=auto;html=1;exitX=1;exitY=0.5;exitDx=0;exitDy=0;entryX=1;entryY=0;entryDx=0;entryDy=52.5;entryPerimeter=0;" parent="1" source="FBqa_B7aNncu9lDiiUvF-22" target="FBqa_B7aNncu9lDiiUvF-10" edge="1">
          <mxGeometry relative="1" as="geometry" />
        </mxCell>
        <mxCell id="FBqa_B7aNncu9lDiiUvF-25" value="延迟双删&lt;br&gt;保证最终一致性" style="text;html=1;align=center;verticalAlign=middle;whiteSpace=wrap;rounded=0;fillColor=#f8cecc;strokeColor=#b85450;" parent="1" vertex="1">
          <mxGeometry x="640" y="570" width="90" height="30" as="geometry" />
        </mxCell>
        <mxCell id="FBqa_B7aNncu9lDiiUvF-28" style="edgeStyle=orthogonalEdgeStyle;rounded=0;orthogonalLoop=1;jettySize=auto;html=1;exitX=1;exitY=0.5;exitDx=0;exitDy=0;entryX=0;entryY=0.5;entryDx=0;entryDy=0;" parent="1" source="FBqa_B7aNncu9lDiiUvF-26" target="FBqa_B7aNncu9lDiiUvF-27" edge="1">
          <mxGeometry relative="1" as="geometry" />
        </mxCell>
        <mxCell id="FBqa_B7aNncu9lDiiUvF-26" value="过滤 id &amp;lt; 10000" style="rounded=1;whiteSpace=wrap;html=1;" parent="1" vertex="1">
          <mxGeometry x="230" y="820" width="120" height="60" as="geometry" />
        </mxCell>
        <mxCell id="FBqa_B7aNncu9lDiiUvF-30" style="edgeStyle=orthogonalEdgeStyle;rounded=0;orthogonalLoop=1;jettySize=auto;html=1;exitX=1;exitY=0.5;exitDx=0;exitDy=0;entryX=0;entryY=0.5;entryDx=0;entryDy=0;" parent="1" source="FBqa_B7aNncu9lDiiUvF-27" target="FBqa_B7aNncu9lDiiUvF-29" edge="1">
          <mxGeometry relative="1" as="geometry" />
        </mxCell>
        <mxCell id="FBqa_B7aNncu9lDiiUvF-27" value="Redis multiget&lt;br&gt;在缓存中的id集合" style="rounded=1;whiteSpace=wrap;html=1;" parent="1" vertex="1">
          <mxGeometry x="390" y="820" width="120" height="60" as="geometry" />
        </mxCell>
        <mxCell id="FBqa_B7aNncu9lDiiUvF-31" style="edgeStyle=orthogonalEdgeStyle;rounded=0;orthogonalLoop=1;jettySize=auto;html=1;exitX=0.5;exitY=1;exitDx=0;exitDy=0;" parent="1" source="FBqa_B7aNncu9lDiiUvF-29" edge="1">
          <mxGeometry relative="1" as="geometry">
            <mxPoint x="586.6666666666665" y="940" as="targetPoint" />
          </mxGeometry>
        </mxCell>
        <mxCell id="FBqa_B7aNncu9lDiiUvF-34" style="edgeStyle=orthogonalEdgeStyle;rounded=0;orthogonalLoop=1;jettySize=auto;html=1;exitX=1;exitY=0.5;exitDx=0;exitDy=0;" parent="1" source="FBqa_B7aNncu9lDiiUvF-29" edge="1">
          <mxGeometry relative="1" as="geometry">
            <mxPoint x="710" y="849.7777777777778" as="targetPoint" />
          </mxGeometry>
        </mxCell>
        <mxCell id="FBqa_B7aNncu9lDiiUvF-29" value="判断是否都在缓存中" style="rhombus;whiteSpace=wrap;html=1;" parent="1" vertex="1">
          <mxGeometry x="547" y="805" width="80" height="90" as="geometry" />
        </mxCell>
        <mxCell id="FBqa_B7aNncu9lDiiUvF-32" value="是" style="text;html=1;align=center;verticalAlign=middle;whiteSpace=wrap;rounded=0;" parent="1" vertex="1">
          <mxGeometry x="539" y="895" width="60" height="30" as="geometry" />
        </mxCell>
        <mxCell id="FBqa_B7aNncu9lDiiUvF-33" value="直接返回" style="rounded=1;whiteSpace=wrap;html=1;" parent="1" vertex="1">
          <mxGeometry x="527" y="940" width="120" height="60" as="geometry" />
        </mxCell>
        <mxCell id="FBqa_B7aNncu9lDiiUvF-35" value="否" style="text;html=1;align=center;verticalAlign=middle;whiteSpace=wrap;rounded=0;" parent="1" vertex="1">
          <mxGeometry x="627" y="820" width="60" height="30" as="geometry" />
        </mxCell>
        <mxCell id="FBqa_B7aNncu9lDiiUvF-37" style="edgeStyle=orthogonalEdgeStyle;rounded=0;orthogonalLoop=1;jettySize=auto;html=1;exitX=1;exitY=0.5;exitDx=0;exitDy=0;entryX=0;entryY=0.5;entryDx=0;entryDy=0;" parent="1" source="FBqa_B7aNncu9lDiiUvF-36" target="FBqa_B7aNncu9lDiiUvF-38" edge="1">
          <mxGeometry relative="1" as="geometry">
            <mxPoint x="900" y="849.7777777777778" as="targetPoint" />
          </mxGeometry>
        </mxCell>
        <mxCell id="FBqa_B7aNncu9lDiiUvF-36" value="不在缓存中的id集合" style="rounded=1;whiteSpace=wrap;html=1;" parent="1" vertex="1">
          <mxGeometry x="687" y="820" width="120" height="60" as="geometry" />
        </mxCell>
        <mxCell id="FBqa_B7aNncu9lDiiUvF-39" style="edgeStyle=orthogonalEdgeStyle;rounded=0;orthogonalLoop=1;jettySize=auto;html=1;exitX=1;exitY=0.5;exitDx=0;exitDy=0;entryX=0;entryY=0.5;entryDx=0;entryDy=0;" parent="1" source="FBqa_B7aNncu9lDiiUvF-38" target="FBqa_B7aNncu9lDiiUvF-40" edge="1">
          <mxGeometry relative="1" as="geometry">
            <mxPoint x="1110" y="849.7777777777778" as="targetPoint" />
          </mxGeometry>
        </mxCell>
        <mxCell id="FBqa_B7aNncu9lDiiUvF-38" value="100分组取模" style="rounded=1;whiteSpace=wrap;html=1;" parent="1" vertex="1">
          <mxGeometry x="850" y="820" width="120" height="60" as="geometry" />
        </mxCell>
        <mxCell id="FBqa_B7aNncu9lDiiUvF-43" style="edgeStyle=orthogonalEdgeStyle;rounded=0;orthogonalLoop=1;jettySize=auto;html=1;exitX=1;exitY=0.5;exitDx=0;exitDy=0;" parent="1" source="FBqa_B7aNncu9lDiiUvF-40" target="FBqa_B7aNncu9lDiiUvF-42" edge="1">
          <mxGeometry relative="1" as="geometry" />
        </mxCell>
        <mxCell id="FBqa_B7aNncu9lDiiUvF-40" value="&lt;div style=&quot;&quot;&gt;&lt;pre style=&quot;font-family: &amp;quot;JetBrains Mono&amp;quot;, monospace;&quot;&gt;&lt;font style=&quot;font-size: 12px;&quot;&gt;parallelStream&lt;/font&gt;&lt;/pre&gt;&lt;pre style=&quot;font-family: &amp;quot;JetBrains Mono&amp;quot;, monospace;&quot;&gt;并行流查询&lt;/pre&gt;&lt;/div&gt;" style="rounded=1;whiteSpace=wrap;html=1;fontColor=default;labelBackgroundColor=none;" parent="1" vertex="1">
          <mxGeometry x="1010" y="820" width="120" height="60" as="geometry" />
        </mxCell>
        <mxCell id="FBqa_B7aNncu9lDiiUvF-42" value="Redis设置过期时间" style="rounded=1;whiteSpace=wrap;html=1;" parent="1" vertex="1">
          <mxGeometry x="1170" y="820" width="120" height="60" as="geometry" />
        </mxCell>
        <mxCell id="FBqa_B7aNncu9lDiiUvF-55" value="id_generator" style="swimlane;childLayout=stackLayout;horizontal=1;startSize=50;horizontalStack=0;rounded=1;fontSize=14;fontStyle=0;strokeWidth=2;resizeParent=0;resizeLast=1;shadow=0;dashed=0;align=center;arcSize=4;whiteSpace=wrap;html=1;" parent="1" vertex="1">
          <mxGeometry x="270" y="1070" width="190" height="120" as="geometry" />
        </mxCell>
        <mxCell id="FBqa_B7aNncu9lDiiUvF-56" value="InitNum 初始值&lt;br&gt;current_start 当前段开始值&lt;br&gt;step 步长&lt;br&gt;next_threshold 当前段末位值" style="align=left;strokeColor=none;fillColor=none;spacingLeft=4;fontSize=12;verticalAlign=top;resizable=0;rotatable=0;part=1;html=1;" parent="FBqa_B7aNncu9lDiiUvF-55" vertex="1">
          <mxGeometry y="50" width="190" height="70" as="geometry" />
        </mxCell>
        <mxCell id="FBqa_B7aNncu9lDiiUvF-59" style="edgeStyle=orthogonalEdgeStyle;rounded=0;orthogonalLoop=1;jettySize=auto;html=1;exitX=1;exitY=0.5;exitDx=0;exitDy=0;entryX=0;entryY=0.5;entryDx=0;entryDy=0;" parent="1" source="FBqa_B7aNncu9lDiiUvF-57" target="FBqa_B7aNncu9lDiiUvF-58" edge="1">
          <mxGeometry relative="1" as="geometry" />
        </mxCell>
        <mxCell id="FBqa_B7aNncu9lDiiUvF-57" value="afterPropertiesSet()&lt;br&gt;启动服务" style="rounded=1;whiteSpace=wrap;html=1;" parent="1" vertex="1">
          <mxGeometry x="220" y="1320" width="120" height="60" as="geometry" />
        </mxCell>
        <mxCell id="FBqa_B7aNncu9lDiiUvF-62" style="edgeStyle=orthogonalEdgeStyle;rounded=0;orthogonalLoop=1;jettySize=auto;html=1;exitX=0.5;exitY=1;exitDx=0;exitDy=0;entryX=0.5;entryY=0;entryDx=0;entryDy=0;" parent="1" source="FBqa_B7aNncu9lDiiUvF-58" target="FBqa_B7aNncu9lDiiUvF-61" edge="1">
          <mxGeometry relative="1" as="geometry" />
        </mxCell>
        <mxCell id="J14YJ-X6Wbk_EFNUaiwi-13" style="edgeStyle=orthogonalEdgeStyle;rounded=0;orthogonalLoop=1;jettySize=auto;html=1;exitX=1;exitY=0.5;exitDx=0;exitDy=0;entryX=0;entryY=0.5;entryDx=0;entryDy=0;" edge="1" parent="1" source="FBqa_B7aNncu9lDiiUvF-58" target="J14YJ-X6Wbk_EFNUaiwi-12">
          <mxGeometry relative="1" as="geometry" />
        </mxCell>
        <mxCell id="FBqa_B7aNncu9lDiiUvF-58" value="&lt;div style=&quot;&quot;&gt;&lt;pre style=&quot;font-family: &amp;quot;JetBrains Mono&amp;quot;, monospace;&quot;&gt;遍历调用&lt;/pre&gt;&lt;pre style=&quot;font-family: &amp;quot;JetBrains Mono&amp;quot;, monospace;&quot;&gt;tryUpdateMySQLRecord&lt;/pre&gt;&lt;/div&gt;" style="rounded=1;whiteSpace=wrap;html=1;fontColor=default;labelBackgroundColor=none;" parent="1" vertex="1">
          <mxGeometry x="471" y="1320" width="159" height="60" as="geometry" />
        </mxCell>
        <mxCell id="FBqa_B7aNncu9lDiiUvF-60" value="从数据库中获取所有id生成配置" style="text;html=1;align=center;verticalAlign=middle;whiteSpace=wrap;rounded=0;" parent="1" vertex="1">
          <mxGeometry x="360" y="1320" width="90" height="30" as="geometry" />
        </mxCell>
        <mxCell id="FBqa_B7aNncu9lDiiUvF-64" style="edgeStyle=orthogonalEdgeStyle;rounded=0;orthogonalLoop=1;jettySize=auto;html=1;exitX=0.5;exitY=1;exitDx=0;exitDy=0;" parent="1" source="FBqa_B7aNncu9lDiiUvF-61" target="FBqa_B7aNncu9lDiiUvF-63" edge="1">
          <mxGeometry relative="1" as="geometry" />
        </mxCell>
        <mxCell id="FBqa_B7aNncu9lDiiUvF-61" value="乐观锁版本号&lt;br&gt;更新表中对应记录&lt;br&gt;表示id段抢占" style="rounded=1;whiteSpace=wrap;html=1;" parent="1" vertex="1">
          <mxGeometry x="490.5" y="1430" width="120" height="60" as="geometry" />
        </mxCell>
        <mxCell id="FBqa_B7aNncu9lDiiUvF-65" style="edgeStyle=orthogonalEdgeStyle;rounded=0;orthogonalLoop=1;jettySize=auto;html=1;exitX=0.5;exitY=1;exitDx=0;exitDy=0;" parent="1" source="FBqa_B7aNncu9lDiiUvF-63" edge="1">
          <mxGeometry relative="1" as="geometry">
            <mxPoint x="550.8333333333335" y="1660" as="targetPoint" />
            <Array as="points">
              <mxPoint x="551" y="1660" />
              <mxPoint x="551" y="1660" />
            </Array>
          </mxGeometry>
        </mxCell>
        <mxCell id="FBqa_B7aNncu9lDiiUvF-67" style="edgeStyle=orthogonalEdgeStyle;rounded=0;orthogonalLoop=1;jettySize=auto;html=1;exitX=0;exitY=0.5;exitDx=0;exitDy=0;entryX=0;entryY=0.5;entryDx=0;entryDy=0;" parent="1" source="FBqa_B7aNncu9lDiiUvF-63" target="FBqa_B7aNncu9lDiiUvF-61" edge="1">
          <mxGeometry relative="1" as="geometry">
            <Array as="points">
              <mxPoint x="450" y="1570" />
              <mxPoint x="450" y="1460" />
            </Array>
          </mxGeometry>
        </mxCell>
        <mxCell id="FBqa_B7aNncu9lDiiUvF-63" value="更新成功？" style="rhombus;whiteSpace=wrap;html=1;" parent="1" vertex="1">
          <mxGeometry x="511" y="1530" width="80" height="80" as="geometry" />
        </mxCell>
        <mxCell id="FBqa_B7aNncu9lDiiUvF-66" value="&lt;div style=&quot;&quot;&gt;&lt;pre style=&quot;font-family: &amp;quot;JetBrains Mono&amp;quot;, monospace;&quot;&gt;&lt;font style=&quot;font-size: 13px;&quot;&gt;localIdBOHandler&lt;/font&gt;&lt;/pre&gt;&lt;/div&gt;" style="rounded=1;whiteSpace=wrap;html=1;fontColor=default;labelBackgroundColor=none;" parent="1" vertex="1">
          <mxGeometry x="486" y="1660" width="129" height="60" as="geometry" />
        </mxCell>
        <mxCell id="FBqa_B7aNncu9lDiiUvF-68" value="三次重新尝试" style="text;html=1;align=center;verticalAlign=middle;whiteSpace=wrap;rounded=0;" parent="1" vertex="1">
          <mxGeometry x="360" y="1500" width="86" height="30" as="geometry" />
        </mxCell>
        <mxCell id="FBqa_B7aNncu9lDiiUvF-69" value="失败" style="text;html=1;align=center;verticalAlign=middle;whiteSpace=wrap;rounded=0;" parent="1" vertex="1">
          <mxGeometry x="451" y="1540" width="60" height="30" as="geometry" />
        </mxCell>
        <mxCell id="FBqa_B7aNncu9lDiiUvF-70" value="成功" style="text;html=1;align=center;verticalAlign=middle;whiteSpace=wrap;rounded=0;" parent="1" vertex="1">
          <mxGeometry x="500" y="1610" width="60" height="30" as="geometry" />
        </mxCell>
        <mxCell id="FBqa_B7aNncu9lDiiUvF-71" value="有序idMap" style="rounded=1;whiteSpace=wrap;html=1;" parent="1" vertex="1">
          <mxGeometry x="360" y="1770" width="120" height="60" as="geometry" />
        </mxCell>
        <mxCell id="FBqa_B7aNncu9lDiiUvF-72" value="无序idMap" style="rounded=1;whiteSpace=wrap;html=1;" parent="1" vertex="1">
          <mxGeometry x="625" y="1770" width="120" height="60" as="geometry" />
        </mxCell>
        <mxCell id="FBqa_B7aNncu9lDiiUvF-73" value="" style="endArrow=classic;html=1;rounded=0;entryX=0.5;entryY=0;entryDx=0;entryDy=0;" parent="1" target="FBqa_B7aNncu9lDiiUvF-71" edge="1">
          <mxGeometry width="50" height="50" relative="1" as="geometry">
            <mxPoint x="550" y="1720" as="sourcePoint" />
            <mxPoint x="600" y="1670" as="targetPoint" />
          </mxGeometry>
        </mxCell>
        <mxCell id="FBqa_B7aNncu9lDiiUvF-74" value="" style="endArrow=classic;html=1;rounded=0;entryX=0.5;entryY=0;entryDx=0;entryDy=0;" parent="1" target="FBqa_B7aNncu9lDiiUvF-72" edge="1">
          <mxGeometry width="50" height="50" relative="1" as="geometry">
            <mxPoint x="550" y="1720" as="sourcePoint" />
            <mxPoint x="600" y="1670" as="targetPoint" />
          </mxGeometry>
        </mxCell>
        <mxCell id="J14YJ-X6Wbk_EFNUaiwi-2" value="&lt;div style=&quot;&quot;&gt;&lt;pre style=&quot;font-family: &amp;quot;JetBrains Mono&amp;quot;, monospace;&quot;&gt;&lt;font style=&quot;font-size: 13px;&quot;&gt;localSeqIdBO&lt;/font&gt;&lt;/pre&gt;&lt;/div&gt;" style="swimlane;childLayout=stackLayout;horizontal=1;startSize=50;horizontalStack=0;rounded=1;fontSize=14;fontStyle=0;strokeWidth=2;resizeParent=0;resizeLast=1;shadow=0;dashed=0;align=center;arcSize=4;whiteSpace=wrap;html=1;fontColor=default;labelBackgroundColor=none;" vertex="1" parent="1">
          <mxGeometry x="362" y="1830" width="116" height="110" as="geometry" />
        </mxCell>
        <mxCell id="J14YJ-X6Wbk_EFNUaiwi-3" value="currentNum&lt;br&gt;currentStart&lt;br&gt;nextThreshold" style="align=left;strokeColor=none;fillColor=none;spacingLeft=4;fontSize=12;verticalAlign=top;resizable=0;rotatable=0;part=1;html=1;" vertex="1" parent="J14YJ-X6Wbk_EFNUaiwi-2">
          <mxGeometry y="50" width="116" height="60" as="geometry" />
        </mxCell>
        <mxCell id="J14YJ-X6Wbk_EFNUaiwi-4" value="&lt;div style=&quot;font-size: 13px;&quot;&gt;&lt;pre style=&quot;font-family: &amp;quot;JetBrains Mono&amp;quot;, monospace; font-size: 13px;&quot;&gt;&lt;div style=&quot;font-size: 13px;&quot;&gt;&lt;pre style=&quot;font-family: &amp;quot;JetBrains Mono&amp;quot;, monospace; font-size: 13px;&quot;&gt;localUnSeqIdBO&lt;/pre&gt;&lt;/div&gt;&lt;/pre&gt;&lt;/div&gt;" style="swimlane;childLayout=stackLayout;horizontal=1;startSize=50;horizontalStack=0;rounded=1;fontSize=13;fontStyle=0;strokeWidth=2;resizeParent=0;resizeLast=1;shadow=0;dashed=0;align=center;arcSize=4;whiteSpace=wrap;html=1;fontColor=default;labelBackgroundColor=none;" vertex="1" parent="1">
          <mxGeometry x="627" y="1830" width="116" height="110" as="geometry" />
        </mxCell>
        <mxCell id="J14YJ-X6Wbk_EFNUaiwi-5" value="Queue&lt;br&gt;currentStart&lt;br&gt;nextThreshold" style="align=left;strokeColor=none;fillColor=none;spacingLeft=4;fontSize=12;verticalAlign=top;resizable=0;rotatable=0;part=1;html=1;" vertex="1" parent="J14YJ-X6Wbk_EFNUaiwi-4">
          <mxGeometry y="50" width="116" height="60" as="geometry" />
        </mxCell>
        <mxCell id="J14YJ-X6Wbk_EFNUaiwi-6" value="id_generator" style="shape=cylinder3;whiteSpace=wrap;html=1;boundedLbl=1;backgroundOutline=1;size=15;" vertex="1" parent="1">
          <mxGeometry x="672" y="1521" width="73" height="75" as="geometry" />
        </mxCell>
        <mxCell id="J14YJ-X6Wbk_EFNUaiwi-7" style="edgeStyle=orthogonalEdgeStyle;rounded=0;orthogonalLoop=1;jettySize=auto;html=1;exitX=1;exitY=0.5;exitDx=0;exitDy=0;entryX=0;entryY=0;entryDx=0;entryDy=48.75;entryPerimeter=0;" edge="1" parent="1" source="FBqa_B7aNncu9lDiiUvF-63" target="J14YJ-X6Wbk_EFNUaiwi-6">
          <mxGeometry relative="1" as="geometry" />
        </mxCell>
        <mxCell id="J14YJ-X6Wbk_EFNUaiwi-8" value="&lt;div style=&quot;&quot;&gt;&lt;pre style=&quot;font-family: &amp;quot;JetBrains Mono&amp;quot;, monospace;&quot;&gt;&lt;font style=&quot;font-size: 12px;&quot;&gt;getSeqId&lt;/font&gt;&lt;/pre&gt;&lt;pre style=&quot;font-family: &amp;quot;JetBrains Mono&amp;quot;, monospace;&quot;&gt;接口&lt;/pre&gt;&lt;/div&gt;" style="rounded=1;whiteSpace=wrap;html=1;fontColor=default;labelBackgroundColor=none;" vertex="1" parent="1">
          <mxGeometry x="950" y="1320" width="120" height="60" as="geometry" />
        </mxCell>
        <mxCell id="J14YJ-X6Wbk_EFNUaiwi-15" style="edgeStyle=orthogonalEdgeStyle;rounded=0;orthogonalLoop=1;jettySize=auto;html=1;exitX=0.5;exitY=1;exitDx=0;exitDy=0;" edge="1" parent="1" source="J14YJ-X6Wbk_EFNUaiwi-9">
          <mxGeometry relative="1" as="geometry">
            <mxPoint x="1010" y="1530" as="targetPoint" />
          </mxGeometry>
        </mxCell>
        <mxCell id="J14YJ-X6Wbk_EFNUaiwi-9" value="有序idMap" style="rounded=1;whiteSpace=wrap;html=1;" vertex="1" parent="1">
          <mxGeometry x="950" y="1420" width="120" height="60" as="geometry" />
        </mxCell>
        <mxCell id="J14YJ-X6Wbk_EFNUaiwi-11" value="" style="endArrow=classic;html=1;rounded=0;" edge="1" parent="1" target="J14YJ-X6Wbk_EFNUaiwi-9">
          <mxGeometry width="50" height="50" relative="1" as="geometry">
            <mxPoint x="1010" y="1380" as="sourcePoint" />
            <mxPoint x="1060" y="1330" as="targetPoint" />
          </mxGeometry>
        </mxCell>
        <mxCell id="J14YJ-X6Wbk_EFNUaiwi-12" value="&lt;div style=&quot;&quot;&gt;&lt;pre style=&quot;font-family: &amp;quot;JetBrains Mono&amp;quot;, monospace;&quot;&gt;&lt;font style=&quot;font-size: 12px;&quot;&gt;semaphoreMap&lt;/font&gt;&lt;/pre&gt;&lt;/div&gt;" style="rounded=1;whiteSpace=wrap;html=1;fontColor=default;labelBackgroundColor=none;" vertex="1" parent="1">
          <mxGeometry x="687" y="1320" width="120" height="60" as="geometry" />
        </mxCell>
        <mxCell id="J14YJ-X6Wbk_EFNUaiwi-14" value="从Map中获取localSeqIdBO对象" style="text;html=1;align=center;verticalAlign=middle;whiteSpace=wrap;rounded=0;" vertex="1" parent="1">
          <mxGeometry x="890" y="1390" width="110" height="30" as="geometry" />
        </mxCell>
        <mxCell id="J14YJ-X6Wbk_EFNUaiwi-16" value="有序idMap" style="rounded=1;whiteSpace=wrap;html=1;" vertex="1" parent="1">
          <mxGeometry x="950" y="1530" width="120" height="60" as="geometry" />
        </mxCell>
      </root>
    </mxGraphModel>
  </diagram>
</mxfile>
